PathFileType  4	(X/Y/Z) C:\Users\antoi\Documents\MyRepositories\mobilecap\ResultsAnalysis
DataRate	CameraRate	NumFrames	NumMarkers	Units	OrigDataRate	OrigDataStartFrame	OrigNumFrames
100.0	100.0	5	51	mm	100.0	18	136
Frame#	Time	r_knee			r_shank_antsup			r_ankle			r_calc			r_5meta			r_toe			L_knee			L_shank_antsup			L_ankle			L_calc			L_5meta			L_toe			r_sh2			r_sh3			r_sh4			L_sh2			L_sh3			r_thigh1			r_thigh2			r_thigh3			r_thigh4			r_thigh5			L_thigh1			L_thigh2			L_thigh3			L_thigh4			r.ASIS			r.PSIS			L.ASIS			L.PSIS			C7			R_Shoulder			L_Shoulder			R_Sternum			L_Sternum			R_humerus			R_elbow_med			R_elbow_lat			R_forearm			R_wrist_radius			R_wrist_ulna			L_humerus			L_elbow_med			L_elbow_lat			L_forearm			L_wrist_radius			L_wrist_ulna			R_HJC			L_HJC			R_HJC_reg			L_HJC_reg			
		X1	Y1	Z1	X2	Y2	Z2	X3	Y3	Z3	X4	Y4	Z4	X5	Y5	Z5	X6	Y6	Z6	X7	Y7	Z7	X8	Y8	Z8	X9	Y9	Z9	X10	Y10	Z10	X11	Y11	Z11	X12	Y12	Z12	X13	Y13	Z13	X14	Y14	Z14	X15	Y15	Z15	X16	Y16	Z16	X17	Y17	Z17	X18	Y18	Z18	X19	Y19	Z19	X20	Y20	Z20	X21	Y21	Z21	X22	Y22	Z22	X23	Y23	Z23	X24	Y24	Z24	X25	Y25	Z25	X26	Y26	Z26	X27	Y27	Z27	X28	Y28	Z28	X29	Y29	Z29	X30	Y30	Z30	X31	Y31	Z31	X32	Y32	Z32	X33	Y33	Z33	X34	Y34	Z34	X35	Y35	Z35	X36	Y36	Z36	X37	Y37	Z37	X38	Y38	Z38	X39	Y39	Z39	X40	Y40	Z40	X41	Y41	Z41	X42	Y42	Z42	X43	Y43	Z43	X44	Y44	Z44	X45	Y45	Z45	X46	Y46	Z46	X47	Y47	Z47	X48	Y48	Z48	X49	Y49	Z49	X50	Y50	Z50	X51	Y51	Z51	

18	0.17000000	190.22381	468.94669	-122.51807	237.16559	412.36362	-130.43354	210.49077	78.17104	-150.44642	157.87711	54.74004	-196.24114	323.50229	41.26169	-133.79104	363.68319	69.34060	-185.58902	-49.62661	438.04478	-410.55106	-81.13723	350.90180	-402.75185	-349.63162	194.60537	-391.17965	-408.19837	225.35676	-346.78326	-343.65740	74.14516	-410.20471	-297.78064	49.76184	-356.86035	235.15731	300.21599	-125.09788	167.12482	414.70986	-94.97086	156.25432	298.22106	-95.78027	-121.87978	422.85846	-435.68954	-220.88044	350.40707	-439.65408	153.88637	716.82723	-74.92982	191.44721	610.84806	-93.44557	137.19139	567.80044	-90.31289	44.80292	675.32206	-77.24897	83.60318	568.20737	-110.23482	58.76631	697.53007	-443.72215	35.08247	561.32402	-424.54668	-50.76384	713.69202	-443.39329	-74.08866	586.02761	-400.19305	138.55499	905.53072	-154.15588	-76.61386	925.30859	-222.17163	133.01845	882.14436	-376.42486	-73.44952	920.75008	-302.94572	5.00143	1367.28957	-254.13614	34.92224	1329.45572	-108.56003	62.08322	1344.59247	-386.94960	128.88247	1299.23392	-217.35702	130.19784	1301.85849	-259.72428	29.46315	1215.01759	-46.88612	-83.12709	1024.94105	-81.99399	-61.71655	1031.72411	-19.70311	-15.68584	952.00360	8.39850	-0.77192	806.74854	18.98943	-36.36153	810.25787	37.41680	83.59426	1248.65482	-460.93686	53.12655	1020.03755	-468.01835	88.33873	1049.35762	-518.59469	176.12296	983.43463	-510.18845	252.46794	882.17794	-482.91161	233.04435	867.72477	-516.03767	56.41161	817.29262	-149.23722	49.76277	799.46767	-355.84651	63.61930	827.42485	-183.08662	69.38691	819.11617	-330.29937	
19	0.18000000	198.18327	469.44119	-121.48127	243.92888	411.81353	-129.61648	210.96582	78.29222	-150.76092	158.13360	54.91591	-196.30184	323.70584	41.14677	-133.97511	364.16722	68.13183	-186.12809	-23.37946	435.83943	-411.58797	-57.13728	349.69547	-403.42036	-330.49498	203.78284	-389.42254	-385.34432	238.51782	-342.94893	-333.72627	83.29292	-409.30840	-287.86569	54.88707	-357.91481	239.92238	299.68570	-124.55357	174.04186	415.29089	-94.04708	161.02779	299.02735	-95.19083	-96.17455	422.85977	-435.78281	-197.20588	353.44939	-438.55441	165.80205	718.00935	-73.32100	201.86691	611.55000	-92.13773	147.03473	569.12167	-88.16001	56.09085	677.90846	-74.46241	93.06711	570.30100	-107.99818	76.37687	698.54889	-441.74694	57.42204	561.32481	-424.17239	-33.67249	711.02997	-441.77069	-52.63162	581.92031	-400.58171	150.89589	908.42162	-151.44564	-64.20599	927.31904	-221.59143	145.82401	883.81624	-373.52909	-60.81834	922.06702	-302.56139	18.25872	1369.50477	-252.24165	48.95123	1331.72991	-106.77177	75.12069	1346.87473	-385.13580	142.17558	1301.41601	-215.88359	143.37681	1303.97519	-258.11642	44.86735	1216.95584	-45.47893	-66.05615	1025.92296	-80.13886	-44.39332	1032.67616	-17.94691	2.90452	953.48972	9.60408	19.92966	808.46553	19.69525	-15.71033	811.33933	38.29386	95.71152	1250.75287	-459.21254	62.75145	1022.65944	-465.07597	97.78710	1051.11864	-516.11491	184.21712	983.29740	-509.05040	258.06063	879.94694	-483.05216	238.02574	866.04556	-516.12118	68.41269	820.07337	-146.82169	63.23702	800.89491	-353.36871	76.06890	830.34217	-179.93807	82.22797	820.79820	-327.01929	
20	0.19000000	204.88478	469.64220	-120.85767	249.61759	411.13842	-128.92685	211.41753	78.46563	-151.17685	158.39243	54.97344	-196.48159	323.86970	41.12766	-134.21613	364.57968	67.09128	-186.69750	3.27082	434.19940	-412.37597	-32.27177	348.89666	-403.53177	-309.98675	212.89211	-387.20464	-361.25527	250.31998	-338.37439	-320.80711	92.98709	-408.47474	-274.72858	60.95253	-359.31855	243.85926	299.05592	-124.17413	179.73800	415.59350	-93.65278	164.89118	299.55709	-95.12831	-69.75730	423.01647	-435.62058	-172.50295	356.34499	-437.28326	176.88784	718.61542	-71.92862	211.23638	611.68491	-91.11837	155.66423	570.11019	-86.64348	66.57970	680.45683	-72.50665	101.38490	572.25380	-106.46592	93.76545	699.96845	-439.91123	79.81201	561.92217	-423.75629	-16.69200	708.60825	-440.30538	-30.99573	578.26846	-400.84002	163.04233	911.01035	-148.91362	-52.04573	929.26764	-220.82801	158.24696	885.66860	-370.87708	-48.64262	923.44177	-301.98488	31.38776	1371.75861	-250.45515	62.93880	1334.08099	-105.10439	87.86373	1349.11299	-383.48946	155.30200	1303.64102	-214.62819	156.37914	1306.11031	-256.72427	60.30638	1218.99848	-44.17657	-49.06058	1027.00125	-78.14133	-27.00856	1033.72838	-16.12737	21.65727	955.15487	10.80238	41.04178	810.45600	20.30680	5.38183	812.59092	39.08030	107.60118	1252.80278	-457.60090	72.30537	1025.25466	-462.31137	107.18730	1052.89715	-513.74708	192.22973	983.23462	-508.03068	263.49280	877.82391	-483.32500	242.81961	864.50028	-516.38005	80.22264	822.57252	-144.65326	76.23459	802.48567	-351.15728	88.36152	833.13048	-176.92267	94.53369	822.57475	-323.90115	
21	0.20000000	210.55469	469.67152	-120.53595	254.39136	410.43402	-128.32365	211.84277	78.69075	-151.64784	158.64724	54.99285	-196.73181	324.00559	41.15303	-134.47283	364.94449	66.18097	-187.24602	30.15305	433.27325	-412.84220	-6.73252	348.61571	-403.13754	-288.16219	221.70366	-384.58063	-336.42856	260.40163	-333.32453	-304.41697	102.76528	-407.84137	-257.94131	67.68376	-360.97119	247.08879	298.41977	-123.90371	184.39122	415.73628	-93.64155	167.97582	299.92233	-95.42827	-42.86518	423.47684	-435.14766	-147.03557	359.20920	-435.80700	187.16137	718.84400	-70.74163	219.73232	611.47404	-90.35204	163.29745	570.91551	-85.70492	76.36045	682.97759	-71.32015	108.82820	574.12063	-105.53462	110.90494	701.83429	-438.20096	102.11356	563.19757	-423.28375	0.16896	706.55961	-438.94038	-9.27655	575.23874	-400.85062	175.01352	913.21412	-146.66556	-40.09545	931.22665	-219.80131	170.31410	887.71881	-368.56484	-36.88739	924.93109	-301.11940	44.38386	1374.04267	-248.75290	76.86721	1336.47063	-103.53469	100.29386	1351.29337	-382.01250	168.27165	1305.89467	-213.56971	169.21590	1308.25764	-255.53302	75.76605	1221.10976	-42.96628	-32.17262	1028.13699	-75.95459	-9.52909	1034.83402	-14.22860	40.57534	956.95477	11.98060	62.51550	812.68338	20.77636	26.87700	813.97987	39.76494	119.20787	1254.76672	-456.10787	81.77716	1027.75456	-459.75882	116.54137	1054.66626	-511.50492	200.17738	983.23446	-507.12493	268.83251	875.81457	-483.71758	247.51066	863.11631	-516.79271	91.89285	824.74366	-142.78750	88.69763	804.28577	-349.27907	100.47567	835.83048	-174.13357	106.28116	824.45338	-321.02651	
22	0.21000000	215.44881	469.63796	-120.37913	258.43932	409.77749	-127.76914	212.22714	78.95474	-152.11819	158.89330	55.05854	-196.99018	324.11746	41.18983	-134.70566	365.26605	65.38508	-187.72618	57.13322	433.15566	-412.92978	19.29173	348.94499	-402.32470	-265.06708	229.96329	-381.63849	-311.25658	268.55388	-328.11371	-284.34415	112.14942	-407.48880	-237.35384	74.71998	-362.70898	249.75802	297.85291	-123.67893	188.23163	415.82413	-93.83513	170.44957	300.22784	-95.90398	-15.73498	424.37701	-434.31090	-121.06043	362.14611	-434.05326	196.67891	718.91134	-69.72710	227.55095	611.12568	-89.75886	170.17310	571.66510	-85.21111	85.52565	685.46502	-70.72417	115.67596	575.96005	-105.03975	127.79433	704.15906	-436.60732	124.22853	565.18128	-422.75126	16.91252	704.97176	-437.61219	12.44390	572.92703	-400.54846	186.83628	915.01855	-144.78116	-28.32492	933.26790	-218.47081	182.04194	889.97996	-366.66456	-25.50293	926.59337	-299.90985	57.24258	1376.35245	-247.11746	90.71526	1338.87043	-102.04614	112.41904	1353.41524	-380.69588	181.09778	1308.16585	-212.68083	181.90128	1310.41366	-254.52065	91.22673	1223.26626	-41.83587	-15.39450	1029.30054	-73.54600	8.09824	1035.95659	-12.24154	59.67892	958.85435	13.11713	84.29951	815.11252	21.05405	48.74017	815.48516	40.34280	130.49940	1256.62993	-454.73355	91.15103	1030.11925	-457.42626	125.83525	1056.41166	-509.39218	208.04580	983.29435	-506.33345	274.12551	873.94025	-484.21843	252.17000	861.93573	-517.33092	103.47035	826.59633	-141.25688	100.59633	806.33214	-347.77138	112.39322	838.48502	-171.65530	117.48996	826.44789	-318.47315	
